<svg id="Capa_1" enable-background="new 0 0 512 512" height="512" viewBox="0 0 512 512" width="512" xmlns="http://www.w3.org/2000/svg" xmlns:xlink="http://www.w3.org/1999/xlink"><linearGradient id="SVGID_1_" gradientUnits="userSpaceOnUse" x1="256" x2="256" y1="512" y2="0"><stop offset="0" stop-color="#c3ffe8"/><stop offset=".9973" stop-color="#f0fff4"/></linearGradient><linearGradient id="SVGID_2_" gradientUnits="userSpaceOnUse" x1="256" x2="256" y1="407" y2="105"><stop offset="0" stop-color="#9cffac"/><stop offset="1" stop-color="#00b59c"/></linearGradient><g><g><circle cx="256" cy="256" fill="url(#SVGID_1_)" r="256"/></g><g><g><path d="m238.235 122.765h35.529c4.91 0 8.882-3.973 8.882-8.882s-3.972-8.883-8.881-8.883h-35.529c-4.91 0-8.882 3.973-8.882 8.882s3.972 8.883 8.881 8.883zm35.53 266.47h-35.529c-4.91 0-8.882 3.973-8.882 8.882s3.973 8.882 8.882 8.882h35.529c4.91 0 8.882-3.973 8.882-8.882s-3.973-8.882-8.882-8.882zm-99.771-239.736 30.776-17.765c4.25-2.455 5.707-7.885 3.253-12.135-2.463-4.25-7.919-5.716-12.135-3.253l-30.776 17.765c-4.25 2.455-5.708 7.885-3.253 12.135 2.483 4.285 7.932 5.681 12.135 3.253zm164.012 213.002-30.776 17.765c-4.25 2.455-5.708 7.885-3.253 12.135 2.482 4.285 7.932 5.681 12.135 3.253l30.776-17.765c4.25-2.455 5.707-7.885 3.253-12.135-2.464-4.25-7.902-5.707-12.135-3.253zm-191.76-200.642c-4.259-2.463-9.68-.998-12.135 3.253l-17.765 30.776c-2.455 4.25-.998 9.68 3.253 12.135 4.209 2.431 9.657 1.026 12.135-3.253l17.765-30.776c2.454-4.25.997-9.68-3.253-12.135zm246.155 142.118c-4.259-2.472-9.672-1.006-12.135 3.253l-17.765 30.776c-2.455 4.25-.998 9.68 3.253 12.135 4.209 2.432 9.656 1.026 12.135-3.253l17.765-30.776c2.455-4.25.998-9.68-3.253-12.135zm-269.636-30.212v-35.529c0-4.91-3.973-8.882-8.882-8.882-4.91 0-8.882 3.973-8.882 8.882v35.529c0 4.91 3.973 8.882 8.882 8.882s8.882-3.973 8.882-8.882zm275.353-44.412c-4.91 0-8.882 3.973-8.882 8.882v35.529c0 4.91 3.973 8.882 8.882 8.882 4.91 0 8.882-3.973 8.882-8.882v-35.529c0-4.909-3.973-8.882-8.882-8.882zm-266.384 77.876c-2.455-4.259-7.911-5.725-12.135-3.253-4.25 2.455-5.708 7.885-3.253 12.135l17.765 30.776c2.482 4.286 7.932 5.681 12.135 3.253 4.25-2.455 5.708-7.885 3.253-12.135zm248.532-102.459c2.482 4.285 7.932 5.681 12.135 3.253 4.25-2.455 5.708-7.885 3.253-12.135l-17.765-30.776c-2.455-4.25-7.911-5.716-12.135-3.253-4.25 2.455-5.708 7.885-3.253 12.135zm-175.496 175.496-30.776-17.765c-4.242-2.455-9.68-.998-12.135 3.253-2.455 4.25-.997 9.68 3.253 12.135l30.776 17.765c4.209 2.432 9.657 1.026 12.135-3.253 2.455-4.25.998-9.68-3.253-12.135zm142.118-246.155-30.776-17.765c-4.25-2.463-9.689-.998-12.135 3.253-2.455 4.25-.998 9.68 3.253 12.135l30.776 17.765c4.209 2.431 9.657 1.026 12.135-3.253 2.454-4.251.997-9.681-3.253-12.135zm-170.829 121.889c0 44.082 35.859 79.941 79.941 79.941s79.941-35.859 79.941-79.941-35.859-79.941-79.941-79.941-79.941 35.859-79.941 79.941z" fill="url(#SVGID_2_)"/></g></g></g></svg>