<svg id="Flat" height="512" viewBox="0 0 512 512" width="512" xmlns="http://www.w3.org/2000/svg"><path d="m216 32c-106.04 0-192 85.96-192 192s85.96 192 192 192 192-85.96 192-192-85.96-192-192-192zm24 232a24 24 0 1 1 24 24 24.006 24.006 0 0 1 -24-24zm24-56a24 24 0 1 1 24-24 24.006 24.006 0 0 1 -24 24zm-120 56a24 24 0 1 1 24 24 24.006 24.006 0 0 1 -24-24zm24-56a24 24 0 1 1 24-24 24.006 24.006 0 0 1 -24 24z" fill="#faa2c5"/><path d="m216 80a144 144 0 1 0 144 144 144 144 0 0 0 -144-144zm-48 208a24 24 0 1 1 24-24 24.006 24.006 0 0 1 -24 24zm0-80a24 24 0 1 1 24-24 24.006 24.006 0 0 1 -24 24zm96 80a24 24 0 1 1 24-24 24.006 24.006 0 0 1 -24 24zm0-80a24 24 0 1 1 24-24 24.006 24.006 0 0 1 -24 24z" fill="#fc6c9f"/><path d="m384 272a104 104 0 1 0 104 104 104 104 0 0 0 -104-104zm-40 120a16 16 0 1 1 16-16 16 16 0 0 1 -16 16zm80 0a16 16 0 1 1 16-16 16 16 0 0 1 -16 16z" fill="#ce3536"/></svg>